# xmcd
# 
# Track frame offsets:
#     150
#     18293
#     31497
#     57255
#     75398
# 
# Disc length: 1181
# 
# Revision: 2
# Processed by: cddbd v1.5.2PL0 Copyright (c) Steve Scherf et al.
# Submitted via: BonkEnc v1.0.5
# 
DISCID=2f049b05
DTITLE=きゃりーぱみゅぱみゅ - もったいないとらんど
DYEAR=2013
DGENRE=JPop
TTITLE0=もったいないとらんど
TTITLE1=すんごいオーラ
TTITLE2=にんじゃりばんばん -extended mix-
TTITLE3=もったいないとらんど -instrumental-
TTITLE4=すんごいオーラ -instrumental-
EXTD=YEAR: 2013
EXTT0=
EXTT1=
EXTT2=
EXTT3=
EXTT4=
PLAYORDER=
